G04 DesignSpark PCB Gerber Version 11.0 Build 5877*
G04 #@! TF.Part,Single*
G04 #@! TF.FileFunction,Drillmap*
G04 #@! TF.FilePolarity,Positive*
%FSLAX35Y35*%
%MOIN*%
%ADD82C,0.00500*%
G04 #@! TA.AperFunction,ViaPad*
%ADD95C,0.10000*%
G04 #@! TD.AperFunction*
X0Y0D02*
D02*
D82*
X109625Y29313D02*
X109313Y29000D01*
X108687Y28687D01*
X107750D01*
X107125Y29000D01*
X106813Y29313D01*
X106500Y29937D01*
Y31187D01*
X106813Y31813D01*
X107125Y32125D01*
X107750Y32437D01*
X108687D01*
X109313Y32125D01*
X109625Y31813D01*
Y201813D02*
X109313Y201500D01*
X108687Y201187D01*
X107750D01*
X107125Y201500D01*
X106813Y201813D01*
X106500Y202437D01*
Y203687D01*
X106813Y204313D01*
X107125Y204625D01*
X107750Y204937D01*
X108687D01*
X109313Y204625D01*
X109625Y204313D01*
X146660Y23042D02*
X147910D01*
X147285D02*
Y26792D01*
X146660D02*
X147910D01*
Y41022D02*
X148848D01*
Y40709D01*
X148535Y40085D01*
X148222Y39772D01*
X147598Y39459D01*
X146972D01*
X146348Y39772D01*
X146035Y40085D01*
X145722Y40709D01*
Y41959D01*
X146035Y42585D01*
X146348Y42897D01*
X146972Y43209D01*
X147598D01*
X148222Y42897D01*
X148535Y42585D01*
X148848Y41959D01*
X151372Y38780D02*
Y40030D01*
X151685Y40656D01*
X151997Y40968D01*
X152622Y41280D01*
X153247D01*
X153872Y40968D01*
X154185Y40656D01*
X154497Y40030D01*
Y38780D01*
X154185Y38156D01*
X153872Y37843D01*
X153247Y37530D01*
X152622D01*
X151997Y37843D01*
X151685Y38156D01*
X151372Y38780D01*
X174128D02*
Y40030D01*
X174441Y40656D01*
X174753Y40968D01*
X175378Y41280D01*
X176003D01*
X176628Y40968D01*
X176941Y40656D01*
X177253Y40030D01*
Y38780D01*
X176941Y38156D01*
X176628Y37843D01*
X176003Y37530D01*
X175378D01*
X174753Y37843D01*
X174441Y38156D01*
X174128Y38780D01*
X180715Y23042D02*
X181965D01*
X181340D02*
Y26792D01*
X180715D02*
X181965D01*
Y41022D02*
X182903D01*
Y40709D01*
X182590Y40085D01*
X182278Y39772D01*
X181653Y39459D01*
X181028D01*
X180403Y39772D01*
X180090Y40085D01*
X179778Y40709D01*
Y41959D01*
X180090Y42585D01*
X180403Y42897D01*
X181028Y43209D01*
X181653D01*
X182278Y42897D01*
X182590Y42585D01*
X182903Y41959D01*
X196500Y23652D02*
Y27402D01*
Y25527D02*
X199625D01*
Y23652D02*
Y27402D01*
X196500Y206152D02*
Y209902D01*
Y208027D02*
X199625D01*
Y206152D02*
Y209902D01*
X235250Y184937D02*
X236813Y181187D01*
X238375Y184937D01*
X235250Y194937D02*
X236813Y191187D01*
X238375Y194937D01*
X240250Y189937D02*
X240563Y186187D01*
X241813Y188063D01*
X243063Y186187D01*
X243375Y189937D01*
X245250Y184937D02*
X246813Y181187D01*
X248375Y184937D01*
X245250Y194937D02*
X246813Y191187D01*
X248375Y194937D01*
X250250Y189937D02*
X250563Y186187D01*
X251813Y188063D01*
X253063Y186187D01*
X253375Y189937D01*
X255250Y184937D02*
X256813Y181187D01*
X258375Y184937D01*
X255250Y194937D02*
X256813Y191187D01*
X258375Y194937D01*
X265250Y184937D02*
X266813Y181187D01*
X268375Y184937D01*
X265250Y194937D02*
X266813Y191187D01*
X268375Y194937D01*
X275250Y184937D02*
X276813Y181187D01*
X278375Y184937D01*
X275250Y194937D02*
X276813Y191187D01*
X278375Y194937D01*
X280250Y94625D02*
X280563Y94000D01*
X281187Y93687D01*
X282437D01*
X283063Y94000D01*
X283375Y94625D01*
X283063Y95250D01*
X282437Y95563D01*
X281187D01*
X280563Y95875D01*
X280250Y96500D01*
X280563Y97125D01*
X281187Y97437D01*
X282437D01*
X283063Y97125D01*
X283375Y96500D01*
X280250Y144625D02*
X280563Y144000D01*
X281187Y143687D01*
X282437D01*
X283063Y144000D01*
X283375Y144625D01*
X283063Y145250D01*
X282437Y145563D01*
X281187D01*
X280563Y145875D01*
X280250Y146500D01*
X280563Y147125D01*
X281187Y147437D01*
X282437D01*
X283063Y147125D01*
X283375Y146500D01*
X280250Y160875D02*
X280563Y160250D01*
X281187Y159937D01*
X282437D01*
X283063Y160250D01*
X283375Y160875D01*
X283063Y161500D01*
X282437Y161813D01*
X281187D01*
X280563Y162125D01*
X280250Y162750D01*
X280563Y163375D01*
X281187Y163687D01*
X282437D01*
X283063Y163375D01*
X283375Y162750D01*
X285250Y184937D02*
X286813Y181187D01*
X288375Y184937D01*
X285250Y194937D02*
X286813Y191187D01*
X288375Y194937D01*
X295250Y184937D02*
X296813Y181187D01*
X298375Y184937D01*
X295250Y194937D02*
X296813Y191187D01*
X298375Y194937D01*
X305250Y184937D02*
X306813Y181187D01*
X308375Y184937D01*
X305250Y194937D02*
X306813Y191187D01*
X308375Y194937D01*
X309000Y124937D02*
Y122125D01*
X309313Y121500D01*
X309937Y121187D01*
X311187D01*
X311813Y121500D01*
X312125Y122125D01*
Y124937D01*
X309000Y151187D02*
Y148375D01*
X309313Y147750D01*
X309937Y147437D01*
X311187D01*
X311813Y147750D01*
X312125Y148375D01*
Y151187D01*
X315250Y184937D02*
X316813Y181187D01*
X318375Y184937D01*
X315250Y194937D02*
X316813Y191187D01*
X318375Y194937D01*
X325250Y184937D02*
X326813Y181187D01*
X328375Y184937D01*
X325250Y194937D02*
X326813Y191187D01*
X328375Y194937D01*
X332750Y85875D02*
X333063Y85250D01*
X333687Y84937D01*
X334937D01*
X335563Y85250D01*
X335875Y85875D01*
X335563Y86500D01*
X334937Y86813D01*
X333687D01*
X333063Y87125D01*
X332750Y87750D01*
X333063Y88375D01*
X333687Y88687D01*
X334937D01*
X335563Y88375D01*
X335875Y87750D01*
X332750Y104625D02*
X333063Y104000D01*
X333687Y103687D01*
X334937D01*
X335563Y104000D01*
X335875Y104625D01*
X335563Y105250D01*
X334937Y105563D01*
X333687D01*
X333063Y105875D01*
X332750Y106500D01*
X333063Y107125D01*
X333687Y107437D01*
X334937D01*
X335563Y107125D01*
X335875Y106500D01*
X335250Y184937D02*
X336813Y181187D01*
X338375Y184937D01*
X335250Y194937D02*
X336813Y191187D01*
X338375Y194937D01*
X345250Y184937D02*
X346813Y181187D01*
X348375Y184937D01*
X345250Y194937D02*
X346813Y191187D01*
X348375Y194937D01*
X355250Y184937D02*
X356813Y181187D01*
X358375Y184937D01*
X355250Y194937D02*
X356813Y191187D01*
X358375Y194937D01*
X365250Y184937D02*
X366813Y181187D01*
X368375Y184937D01*
X365250Y194937D02*
X366813Y191187D01*
X368375Y194937D01*
X375250Y45875D02*
X375563Y45250D01*
X376187Y44937D01*
X377437D01*
X378063Y45250D01*
X378375Y45875D01*
X378063Y46500D01*
X377437Y46813D01*
X376187D01*
X375563Y47125D01*
X375250Y47750D01*
X375563Y48375D01*
X376187Y48687D01*
X377437D01*
X378063Y48375D01*
X378375Y47750D01*
X375250Y184937D02*
X376813Y181187D01*
X378375Y184937D01*
X375250Y194937D02*
X376813Y191187D01*
X378375Y194937D01*
X385250Y184937D02*
X386813Y181187D01*
X388375Y184937D01*
X385250Y194937D02*
X386813Y191187D01*
X388375Y194937D01*
X395250Y184937D02*
X396813Y181187D01*
X398375Y184937D01*
X395250Y194937D02*
X396813Y191187D01*
X398375Y194937D01*
X396500Y60875D02*
X396813Y60250D01*
X397437Y59937D01*
X398687D01*
X399313Y60250D01*
X399625Y60875D01*
X399313Y61500D01*
X398687Y61813D01*
X397437D01*
X396813Y62125D01*
X396500Y62750D01*
X396813Y63375D01*
X397437Y63687D01*
X398687D01*
X399313Y63375D01*
X399625Y62750D01*
X401500Y55875D02*
X401813Y55250D01*
X402437Y54937D01*
X403687D01*
X404313Y55250D01*
X404625Y55875D01*
X404313Y56500D01*
X403687Y56813D01*
X402437D01*
X401813Y57125D01*
X401500Y57750D01*
X401813Y58375D01*
X402437Y58687D01*
X403687D01*
X404313Y58375D01*
X404625Y57750D01*
X405250Y184937D02*
X406813Y181187D01*
X408375Y184937D01*
X405250Y194937D02*
X406813Y191187D01*
X408375Y194937D01*
X406500Y40875D02*
X406813Y40250D01*
X407437Y39937D01*
X408687D01*
X409313Y40250D01*
X409625Y40875D01*
X409313Y41500D01*
X408687Y41813D01*
X407437D01*
X406813Y42125D01*
X406500Y42750D01*
X406813Y43375D01*
X407437Y43687D01*
X408687D01*
X409313Y43375D01*
X409625Y42750D01*
X410250Y189937D02*
X410563Y186187D01*
X411813Y188063D01*
X413063Y186187D01*
X413375Y189937D01*
X411500Y50875D02*
X411813Y50250D01*
X412437Y49937D01*
X413687D01*
X414313Y50250D01*
X414625Y50875D01*
X414313Y51500D01*
X413687Y51813D01*
X412437D01*
X411813Y52125D01*
X411500Y52750D01*
X411813Y53375D01*
X412437Y53687D01*
X413687D01*
X414313Y53375D01*
X414625Y52750D01*
X415250Y184937D02*
X416813Y181187D01*
X418375Y184937D01*
X415250Y194937D02*
X416813Y191187D01*
X418375Y194937D01*
X420250Y189937D02*
X420563Y186187D01*
X421813Y188063D01*
X423063Y186187D01*
X423375Y189937D01*
X425250Y184937D02*
X426813Y181187D01*
X428375Y184937D01*
X425250Y194937D02*
X426813Y191187D01*
X428375Y194937D01*
X441500Y209625D02*
X441813Y209000D01*
X442437Y208687D01*
X443687D01*
X444313Y209000D01*
X444625Y209625D01*
X444313Y210250D01*
X443687Y210563D01*
X442437D01*
X441813Y210875D01*
X441500Y211500D01*
X441813Y212125D01*
X442437Y212437D01*
X443687D01*
X444313Y212125D01*
X444625Y211500D01*
X446500Y204625D02*
X446813Y204000D01*
X447437Y203687D01*
X448687D01*
X449313Y204000D01*
X449625Y204625D01*
X449313Y205250D01*
X448687Y205563D01*
X447437D01*
X446813Y205875D01*
X446500Y206500D01*
X446813Y207125D01*
X447437Y207437D01*
X448687D01*
X449313Y207125D01*
X449625Y206500D01*
X451500Y199625D02*
X451813Y199000D01*
X452437Y198687D01*
X453687D01*
X454313Y199000D01*
X454625Y199625D01*
X454313Y200250D01*
X453687Y200563D01*
X452437D01*
X451813Y200875D01*
X451500Y201500D01*
X451813Y202125D01*
X452437Y202437D01*
X453687D01*
X454313Y202125D01*
X454625Y201500D01*
X454000Y23652D02*
Y27402D01*
Y25527D02*
X457125D01*
Y23652D02*
Y27402D01*
X454000Y206152D02*
Y209902D01*
Y208027D02*
X457125D01*
Y206152D02*
Y209902D01*
X474625Y29313D02*
X474313Y29000D01*
X473687Y28687D01*
X472750D01*
X472125Y29000D01*
X471813Y29313D01*
X471500Y29937D01*
Y31187D01*
X471813Y31813D01*
X472125Y32125D01*
X472750Y32437D01*
X473687D01*
X474313Y32125D01*
X474625Y31813D01*
Y201813D02*
X474313Y201500D01*
X473687Y201187D01*
X472750D01*
X472125Y201500D01*
X471813Y201813D01*
X471500Y202437D01*
Y203687D01*
X471813Y204313D01*
X472125Y204625D01*
X472750Y204937D01*
X473687D01*
X474313Y204625D01*
X474625Y204313D01*
D02*
D95*
X96500Y22750D03*
Y195250D03*
X135722Y17105D03*
Y33522D03*
X141372Y31593D03*
X164128D03*
X169778Y17105D03*
Y33522D03*
X186500Y17715D03*
Y200215D03*
X225250Y175250D03*
Y185250D03*
X230250Y180250D03*
X235250Y175250D03*
Y185250D03*
X240250Y180250D03*
X245250Y175250D03*
Y185250D03*
X255250Y175250D03*
Y185250D03*
X265250Y175250D03*
Y185250D03*
X270250Y87750D03*
Y137750D03*
Y154000D03*
X275250Y175250D03*
Y185250D03*
X285250Y175250D03*
Y185250D03*
X295250Y175250D03*
Y185250D03*
X299000Y115250D03*
Y141500D03*
X305250Y175250D03*
Y185250D03*
X315250Y175250D03*
Y185250D03*
X322750Y79000D03*
Y97750D03*
X325250Y175250D03*
Y185250D03*
X335250Y175250D03*
Y185250D03*
X345250Y175250D03*
Y185250D03*
X355250Y175250D03*
Y185250D03*
X365250Y39000D03*
Y175250D03*
Y185250D03*
X375250Y175250D03*
Y185250D03*
X385250Y175250D03*
Y185250D03*
X386500Y54000D03*
X391500Y49000D03*
X395250Y175250D03*
Y185250D03*
X396500Y34000D03*
X400250Y180250D03*
X401500Y44000D03*
X405250Y175250D03*
Y185250D03*
X410250Y180250D03*
X415250Y175250D03*
Y185250D03*
X431500Y202750D03*
X436500Y197750D03*
X441500Y192750D03*
X444000Y17715D03*
Y200215D03*
X461500Y22750D03*
Y195250D03*
X0Y0D02*
M02*
