G04 DesignSpark PCB Gerber Version 11.0 Build 5877*
G04 #@! TF.Part,Single*
G04 #@! TF.FilePolarity,Positive*
%FSLAX35Y35*%
%MOIN*%
G04 #@! TA.AperFunction,MechanicalDrill*
%ADD138C,0.01969*%
G04 #@! TA.AperFunction,ComponentDrill*
%ADD139C,0.02362*%
G04 #@! TA.AperFunction,ViaDrill*
%ADD137C,0.03189*%
G04 #@! TA.AperFunction,ComponentDrill*
%ADD94C,0.03937*%
%ADD92C,0.04331*%
%ADD93C,0.04724*%
%ADD140C,0.08268*%
G04 #@! TA.AperFunction,MechanicalDrill*
%ADD87C,0.11811*%
G04 #@! TD.AperFunction*
X0Y0D02*
D02*
D87*
X96500Y22750D03*
Y195250D03*
X461500Y22750D03*
Y195250D03*
D02*
D92*
X135722Y33522D03*
X169778D03*
X225250Y175250D03*
Y185250D03*
X235250Y175250D03*
Y185250D03*
X245250Y175250D03*
Y185250D03*
X255250Y175250D03*
Y185250D03*
X265250Y175250D03*
Y185250D03*
X275250Y175250D03*
Y185250D03*
X285250Y175250D03*
Y185250D03*
X295250Y175250D03*
Y185250D03*
X305250Y175250D03*
Y185250D03*
X315250Y175250D03*
Y185250D03*
X325250Y175250D03*
Y185250D03*
X335250Y175250D03*
Y185250D03*
X345250Y175250D03*
Y185250D03*
X355250Y175250D03*
Y185250D03*
X365250Y175250D03*
Y185250D03*
X375250Y175250D03*
Y185250D03*
X385250Y175250D03*
Y185250D03*
X395250Y175250D03*
Y185250D03*
X405250Y175250D03*
Y185250D03*
X415250Y175250D03*
Y185250D03*
D02*
D93*
X186500Y17715D03*
Y200215D03*
X444000Y17715D03*
Y200215D03*
D02*
D94*
X135722Y17105D03*
X169778D03*
D02*
D137*
X270250Y87750D03*
Y137750D03*
Y154000D03*
X322750Y79000D03*
Y97750D03*
X365250Y39000D03*
X386500Y54000D03*
X391500Y49000D03*
X396500Y34000D03*
X401500Y44000D03*
X431500Y202750D03*
X436500Y197750D03*
X441500Y192750D03*
D02*
D138*
X299000Y115250D03*
Y141500D03*
D02*
D139*
X141372Y31593D03*
X164128D03*
D02*
D140*
X230250Y180250D03*
X240250D03*
X400250D03*
X410250D03*
X0Y0D02*
M02*
